<?xml version="1.0" encoding="UTF-8" standalone="no"?>
<!-- Created with Inkscape (http://www.inkscape.org/) -->

<svg
   version="1.1"
   id="svg1"
   width="926.70099"
   height="1001.0408"
   viewBox="0 0 926.70099 1001.0407"
   sodipodi:docname="23d.svg"
   inkscape:version="1.3.2 (091e20ef0f, 2023-11-25)"
   xmlns:inkscape="http://www.inkscape.org/namespaces/inkscape"
   xmlns:sodipodi="http://sodipodi.sourceforge.net/DTD/sodipodi-0.dtd"
   xmlns="http://www.w3.org/2000/svg"
   xmlns:svg="http://www.w3.org/2000/svg">
  <defs
     id="defs1" />
  <sodipodi:namedview
     id="namedview1"
     pagecolor="#ffffff"
     bordercolor="#000000"
     borderopacity="0.25"
     inkscape:showpageshadow="2"
     inkscape:pageopacity="0.0"
     inkscape:pagecheckerboard="0"
     inkscape:deskcolor="#d1d1d1"
     showgrid="false"
     inkscape:zoom="0.40727392"
     inkscape:cx="457.92277"
     inkscape:cy="580.69026"
     inkscape:window-width="1920"
     inkscape:window-height="1011"
     inkscape:window-x="0"
     inkscape:window-y="0"
     inkscape:window-maximized="1"
     inkscape:current-layer="layer2" />
  <g
     inkscape:groupmode="layer"
     id="layer2"
     inkscape:label="Layer 1">
    <path
       style="fill:#000000"
       d="m 410.5722,1034.1088 c -27.40644,-5.6051 -57.47472,-13.3939 -81.90553,-21.2164 -23.95122,-7.669 -40.35114,-12.0155 -58.66666,-15.54845 -8.06667,-1.55602 -17.88918,-4.29494 -21.8278,-6.0865 -3.93861,-1.79155 -8.27249,-3.25737 -9.63082,-3.25737 -1.35834,0 -7.43584,4.67227 -13.50555,10.38283 -12.44435,11.70799 -19.4505,16.80699 -31.03584,22.58769 -15.83634,7.9017 -30.46495,11.0366 -38.90002,8.3363 -12.01051,-3.845 -26.95185,-19.4797 -36.92654,-38.64016 -4.39802,-8.44819 -6.41084,-13.98697 -10.76942,-29.63472 -1.32746,-4.76572 -3.13226,-8.17293 -4.80276,-9.06695 -2.28911,-1.2251 -3.370409,-0.6589 -7.476274,3.91477 -8.78753,9.78873 -33.069704,17.83693 -53.854971,17.84994 -14.398137,0.009 -20.902433,-2.07184 -20.160385,-6.44969 0.24363,-1.43734 5.105525,-10.11335 10.80421,-19.28002 14.33898,-23.06508 32.323962,-56.75166 38.799231,-72.67249 2.98129,-7.33013 6.563374,-15.72751 7.960189,-18.66085 3.306343,-6.94337 8.630238,-33.88552 11.249256,-56.92808 3.861238,-33.97182 4.831828,-62.76433 6.193794,-183.7386 0.747177,-66.36667 1.633249,-123.66668 1.969051,-127.33335 0.335801,-3.66666 1.237897,-15.36666 2.004659,-26 1.8057,-25.04113 5.61596,-54.38009 10.59605,-81.58946 6.2769,-34.29462 7.00293,-37.50083 9.45271,-41.74388 1.27019,-2.2 4.51614,-10 7.21322,-17.33334 2.69708,-7.33333 9.8367,-23.23333 15.86583,-35.33333 10.28163,-20.63446 14.40062,-27.84684 33.12378,-58.00001 4.09817,-6.6 9.54185,-15.39242 12.09707,-19.53872 10.28393,-16.68756 33.01871,-46.29056 46.22799,-60.19357 65.4557,-68.893281 124.08002,-101.227284 184.00001,-101.484445 18.5754,-0.07972 27.33521,1.584124 38.96197,7.400464 4.19576,2.098944 9.14101,3.816262 10.98944,3.816262 1.84844,0 11.05822,-3.297097 20.46619,-7.326883 23.01664,-9.858899 34.56584,-12.718089 54.91573,-13.59528 27.84441,-1.200244 50.88283,4.351086 83.33334,20.079977 29.3198,14.211429 56.22992,34.076438 87.83098,64.836705 20.30177,19.76162 43.195,46.15176 46.07806,53.11645 1.01185,2.44435 4.22037,6.94435 7.13003,10 6.2958,6.61165 23.64768,29.65289 36.31528,48.22238 10.02139,14.6904 26.34637,47.30676 35.92853,71.78312 13.4548,34.36852 19.34791,61.70616 21.89092,101.55022 0.79567,12.46667 2.66764,31.66667 4.15993,42.66667 4.4681,32.93531 5.28344,55.69792 6.61463,184.66669 1.28633,124.62186 1.82807,146.12708 4.19852,166.66668 2.09363,18.14105 11.16768,55.55516 16.49204,68 6.58391,15.38884 21.98996,44.74241 35.3395,67.33334 6.06683,10.26667 12.88386,22.41972 15.14894,27.00678 4.09455,8.29191 4.10319,8.35519 1.49549,10.94941 -6.93271,6.8969 -42.30993,9.71885 -60.50131,4.82603 -4.69982,-1.26408 -9.87744,-1.96393 -11.50582,-1.55524 -1.8621,0.46736 -4.99041,4.15961 -8.43074,9.95054 -13.35878,22.48614 -40.95308,42.18984 -57.74024,41.22934 -7.05549,-0.4037 -7.13539,-0.4571 -10.16137,-6.7922 -3.41691,-7.1535 -5.00187,-8.0266 -18.32419,-10.0936 -13.18972,-2.0465 -23.15799,-5.7756 -33.7443,-12.62389 -12.2549,-7.92766 -13.64039,-8.25122 -20.45176,-4.77632 -3.82909,1.95346 -10.8009,3.5143 -21.07583,4.71844 -16.94312,1.98557 -29.69093,5.23677 -71.35396,18.19827 -57.44919,17.8724 -70.76937,19.7699 -143.33334,20.4175 l -56.66666,0.5058 z"
       id="path1"
       transform="translate(-21.052726,-37.586808)" />
    <path
       id="path2"
       style="fill:#ffe6d5"
       d="M 399.77148 264.61025 C 396.15618 264.65005 392.55175 264.84198 388.98437 265.19032 C 372.33888 266.81567 362.67702 269.95803 346.48241 279.01454 C 325.18817 290.92297 297.91044 314.11078 296.41796 321.57314 C 295.99459 323.68996 293.01863 327.43119 289.18359 330.66493 C 285.59957 333.68702 282.66601 337.18949 282.66601 338.44814 C 282.66601 339.70673 279.99131 345.03634 276.72069 350.29189 C 265.39897 368.48478 249.79419 402.4006 246.18163 416.66689 C 240.52207 439.01709 237.77982 475.17833 239.86327 500.00087 C 241.35309 517.75079 245.55973 544.33911 248.61718 555.3329 C 249.6369 558.99956 251.16506 564.70087 252.01366 568.00087 C 262.23861 607.76306 290.2616 672.98745 309.71679 702.30751 C 315.93024 711.67156 322.24969 721.78917 323.75976 724.78993 C 329.89007 736.97216 388.56421 795.63896 405.99999 807.0204 C 421.96946 817.44466 457.55601 833.02803 473.99999 836.79775 C 486.57272 839.67994 500.98186 838.32396 518.77538 832.5829 C 553.5833 821.35223 578.22456 804.7769 614.66601 768.08681 C 631.57235 751.0651 642.1654 739.14957 648.33398 730.21181 C 653.28392 723.03968 657.33398 716.6078 657.33398 715.91884 C 657.33398 715.22989 658.18487 714.66689 659.22655 714.66689 C 660.26828 714.66689 661.50485 712.91695 661.9746 710.77821 C 662.44434 708.63953 663.72296 706.54668 664.81444 706.12782 C 665.90597 705.70896 668.25474 702.07161 670.03515 698.04579 C 671.81556 694.02002 674.47272 689.52624 675.93944 688.05946 C 682.93127 681.06769 706.86585 625.55984 716.20898 594.66689 C 724.17136 568.33934 727.48425 547.56315 729.2871 512.66689 C 731.39815 471.80507 726.73224 429.88266 717.1914 404.00087 C 710.68632 386.3544 695.63238 356.16595 688.93163 347.3329 C 680.75892 336.55938 651.58154 306.67097 649.22069 306.65321 C 648.18238 306.64521 645.44284 304.69194 643.1328 302.31337 C 633.06365 291.94554 598.88476 278.31592 577.23632 276.03603 C 548.01536 272.95856 523.56074 275.05783 498.87694 282.75868 C 489.63529 285.64191 480.19776 288.00087 477.90429 288.00087 C 475.34084 288.00087 471.49415 286.37772 467.92187 283.78993 C 450.89389 271.455 425.07842 264.33148 399.77148 264.61025 z M 347.42382 384.97157 C 360.92741 384.99747 374.78697 385.75192 384.33398 387.22743 C 421.82148 393.02119 444.99564 403.6695 443.73632 414.5204 C 443.06978 420.26373 438.11146 419.62033 423.35741 411.87782 C 416.11032 408.07477 402.64042 402.24459 393.42382 398.92275 C 376.86494 392.95456 376.42783 392.87743 356.48241 392.3036 C 332.63896 391.61765 314.08656 393.39402 295.80077 398.1161 C 281.01213 401.93511 276.71491 401.70095 280.70507 397.29189 C 283.62277 394.06787 296.48455 389.96078 312.65234 387.09071 C 320.77334 385.6491 333.92023 384.94568 347.42382 384.97157 z M 627.99999 386.19618 C 662.23468 386.12728 674.91899 388.15684 691.90819 396.42275 C 701.55088 401.11426 684.63745 401.82275 672.97655 397.21571 C 659.38982 391.84782 602.86931 392.39406 585.93163 398.05751 C 582.30263 399.27095 569.82493 404.70442 558.20312 410.13173 C 546.58132 415.55903 536.95091 420.00087 536.80273 420.00087 C 536.65456 420.00087 535.81357 419.27931 534.93359 418.39931 C 530.15471 413.62043 536.28861 405.92455 550.65819 398.67079 C 568.32255 389.75386 589.90604 386.27291 627.99999 386.19618 z M 623.76952 414.19228 C 634.49392 414.23088 651.37182 417.04242 659.92968 420.59267 C 664.00173 422.28198 672.13335 424.7087 677.99999 425.98525 C 698.11232 430.36157 702.63787 435.39308 685.57226 434.40517 C 678.41055 433.99058 673.16784 432.84597 668.83593 430.74892 C 665.3666 429.06945 662.22778 427.99379 661.86132 428.36025 C 661.49485 428.72672 657.17559 427.60959 652.26366 425.87587 C 642.05365 422.27213 624.50097 421.57225 609.55663 424.1747 C 602.60192 425.38581 600.01108 426.56791 596.4121 430.16689 C 593.94671 432.63226 589.53486 435.87068 586.60741 437.36415 C 583.67998 438.85762 573.83674 447.26179 564.73437 456.03993 C 555.63201 464.81807 547.54379 472.00087 546.75976 472.00087 C 545.97573 472.00087 545.33398 470.22051 545.33398 468.04579 C 545.33398 464.92477 547.31646 462.10822 554.74999 454.6747 C 574.06228 435.3624 601.91641 417.59017 617.50585 414.63368 C 619.14752 414.32235 621.29467 414.18337 623.76952 414.19228 z M 346.58202 414.28212 C 357.61157 414.05384 367.05486 415.92999 375.5371 419.89931 C 397.91914 430.37313 431.90646 458.15746 433.53905 467.31532 C 434.56149 473.05054 429.31776 469.92216 414.91405 456.20595 C 404.01442 445.82654 396.22915 439.75085 386.85937 434.30946 C 371.87103 425.60521 362.81252 422.83152 345.81444 421.7411 C 333.38903 420.94404 331.91158 421.21131 313.33398 427.62587 C 298.69421 432.68078 283.94764 434.59546 279.99999 431.954 C 278.26888 430.79567 278.34768 430.35066 280.58788 428.6415 C 282.01137 427.55544 284.75969 426.66689 286.6953 426.66689 C 288.63093 426.66689 298.26656 424.25011 308.10741 421.29579 C 322.9364 416.84401 335.55248 414.5104 346.58202 414.28212 z M 630.05273 429.34853 C 642.57503 429.32743 651.74657 431.89626 673.24218 441.44423 C 691.38146 449.50137 695.99999 452.34055 695.99999 455.43251 C 695.99999 460.31346 666.06264 487.22333 658.91991 488.76259 C 656.9478 489.18758 652.09259 491.1084 648.13085 493.03017 C 641.32661 496.33077 639.66514 496.54174 618.13085 496.84657 C 605.59262 497.02405 592.03333 496.63791 587.99999 495.98915 C 575.53975 493.9849 547.99999 484.97258 547.99999 482.89931 C 547.99999 478.64868 569.01046 457.27085 584.66601 445.59267 C 599.2807 434.69088 614.13209 429.37537 630.05273 429.34853 z M 347.33398 430.02235 C 365.80578 429.99885 377.1248 432.41104 381.40234 437.28407 C 382.53984 438.57998 386.29192 440.88958 389.74023 442.41493 C 396.38087 445.35241 421.71982 469.53782 425.16991 476.23134 C 428.71107 483.10148 426.48124 486.07608 415.00194 489.79579 C 409.3174 491.63781 401.36728 493.85022 397.33398 494.71181 C 388.07587 496.68952 353.11661 497.59546 345.8789 496.04579 C 342.87919 495.40352 333.40151 492.6657 324.8164 489.96181 C 313.38324 486.36094 308.67116 484.22864 307.20507 481.9911 C 306.10419 480.31098 303.44852 478.21001 301.30273 477.32118 C 296.68576 475.40877 288.18528 466.48843 282.62304 457.71767 C 277.58461 449.77293 277.87381 449.46172 296.79687 442.44618 C 304.7922 439.48202 315.53268 435.47827 320.66601 433.5497 C 328.9748 430.4281 331.90334 430.04198 347.33398 430.02235 z M 461.74023 625.3329 C 466.26438 625.3329 467.58744 626.15012 483.23632 638.59462 L 489.80859 643.82118 L 496.9453 636.91103 C 505.7233 628.41287 511.17361 625.3329 517.43944 625.3329 C 522.88894 625.3329 526.66601 628.55587 526.66601 633.204 C 526.66601 635.91719 526.07363 636.1783 520.33398 635.98134 C 509.30811 635.60298 508.42251 635.8804 501.81054 641.79579 C 489.76453 652.57276 487.55878 652.85426 478.8789 644.73525 C 471.43985 637.77684 466.60426 635.64101 460.77148 636.73525 C 457.70281 637.31089 455.66079 636.82035 453.35351 634.95204 L 450.17187 632.37392 L 453.6914 628.85439 C 456.11402 626.43177 458.6248 625.3329 461.74023 625.3329 z M 491.33398 683.33681 C 516.16405 683.33681 524.17925 684.92325 532.88085 691.56532 C 540.43953 697.33504 543.21729 698.37616 554.02343 699.48329 C 558.81883 699.9746 563.02697 700.8362 563.37499 701.39931 C 564.27696 702.85872 556.24058 709.3329 553.52734 709.3329 C 549.68648 709.3329 545.79338 712.96845 541.51366 720.55165 C 534.968 732.14996 521.81704 739.41489 501.74413 742.51845 C 491.22478 744.14489 486.76587 744.16991 476.5078 742.66689 C 466.24261 741.16275 452.85002 736.32529 446.78319 731.93056 C 443.347 729.44136 439.93434 725.15153 437.40624 720.14345 C 433.58611 712.57576 433.07199 712.13324 424.16405 708.72939 C 415.79969 705.53317 411.85514 702.35987 414.39062 700.86415 C 414.9086 700.5586 418.03398 699.86975 421.33398 699.33485 C 424.63392 698.80001 433.72158 695.80558 441.52929 692.68056 C 462.759 684.18331 467.27475 683.33681 491.33398 683.33681 z M 340.6289 759.12587 C 340.45412 759.0837 340.38539 759.14957 340.43359 759.3329 C 343.87183 772.4118 344.66222 785.11643 344.66405 827.3329 C 344.66605 870.5543 344.52033 873.25633 341.51171 885.3329 C 337.84721 900.04219 329.02056 923.37683 321.35546 938.62196 C 318.40981 944.48056 315.99999 950.82694 315.99999 952.72548 C 315.99999 954.62402 314.54342 958.08835 312.76366 960.42275 C 308.10259 966.5364 298.61943 986.83008 298.28515 991.40517 C 298.0266 994.94376 298.54765 995.46329 303.99999 997.09462 C 307.29999 998.08197 314.5 1000.6248 319.99999 1002.747 C 330.6384 1006.8518 372.6418 1018.6356 385.99999 1021.2626 C 390.39999 1022.1279 396.99934 1023.6671 400.66601 1024.6825 C 404.33266 1025.6978 416.87326 1027.7485 428.53319 1029.2411 C 440.19314 1030.7336 450.09315 1032.3429 450.53319 1032.8173 C 451.54985 1033.9133 513.74289 1032.3845 536.66601 1030.7001 C 556.42327 1029.2483 593.10528 1022.1981 616.66601 1015.3231 C 632.9975 1010.5576 677.0028 995.44142 678.28905 994.15517 C 679.31347 993.13075 676.54365 986.64963 660.09765 951.60048 C 642.69651 914.51578 640.23864 907.53494 634.42773 878.66689 C 630.14159 857.3738 630.00367 855.68216 630.12499 826.00087 C 630.24966 795.50145 632.57728 771.72974 636.07812 765.18837 C 636.88767 763.67572 637.25194 762.14148 636.88866 761.77821 C 635.47073 760.36028 629.50314 764.87528 617.99999 776.06923 C 601.87763 791.75824 577.449 811.91447 573.33398 812.92275 C 571.50064 813.37195 568.25119 815.19314 566.11327 816.96962 C 559.50744 822.45868 533.70744 834.63666 516.78515 840.25478 C 501.06063 845.47523 500.30742 845.59243 485.99999 845.00087 C 475.60744 844.57118 468.80705 843.52826 462.66601 841.4247 C 451.16499 837.48514 419.34977 822.17043 413.67577 817.84267 C 411.19804 815.95281 407.10782 813.83781 404.58593 813.1415 C 402.06405 812.44517 399.99999 811.03014 399.99999 809.99892 C 399.99999 808.96771 397.45064 806.99431 394.33398 805.6122 C 387.85713 802.73997 379.52939 795.56716 356.19921 772.76259 C 348.2746 765.01651 341.85236 759.42104 340.6289 759.12587 z "
       transform="translate(-21.052726,-37.586808)" />
    <path
       id="path14"
       style="display:inline;fill:#ff00ff"
       d="m 489.21874,690.93446 c -7.95397,-0.0379 -15.40846,0.24764 -19.88476,0.92969 -8.97208,1.36707 -17.67107,3.65894 -26.33399,6.94141 -3.5633,1.35018 -3.96629,4.74691 -0.66601,5.60937 3.86508,1.01005 4.82969,0.97223 9.5,-0.36718 2.46566,-0.70715 21.06142,-1.66654 41.32421,-2.13282 20.26279,-0.46628 37.08762,-1.08429 37.38868,-1.37304 1.23678,-1.18618 -4.2286,-5.54333 -8.88672,-7.08399 -4.54354,-1.50275 -19.18479,-2.46029 -32.44141,-2.52344 z m 49.5625,18.67188 c -0.55868,-0.0239 -1.34843,0.12275 -2.44726,0.41601 -2.01666,0.53822 -4.26666,0.85012 -5,0.69141 -4.20231,-0.90946 -90.11103,-0.94657 -90.67188,-0.0391 -0.3722,0.60223 0.68515,3.69639 2.34961,6.875 3.84077,7.33464 13.9162,13.56876 25.44531,15.74414 4.61643,0.87106 9.25132,2.1269 10.30078,2.79101 3.31277,2.09639 15.28565,1.3523 24.76758,-1.53906 18.74384,-5.71562 36.47461,-17.02564 36.47461,-23.26758 0,-1.11558 -0.28761,-1.63207 -1.21875,-1.67187 z"
       transform="translate(-21.052726,-37.586808)" />
    <path
       id="path20"
       style="fill:#dbe3e2"
       d="M 353.7578 436.13954 C 350.52299 436.04964 346.08222 436.49815 339.6914 437.46181 C 325.83036 439.55186 314.68115 442.51067 309.58984 445.45204 C 307.16459 446.85317 303.99107 448.00087 302.5371 448.00087 C 301.08314 448.00087 297.48554 449.2282 294.54296 450.72939 C 290.05466 453.01913 289.34198 453.92757 290.11718 456.37001 C 292.17719 462.86052 300.61886 471.23022 310.66601 476.74306 C 313.23266 478.15138 316.23398 480.01053 317.33398 480.87392 C 318.43396 481.73731 323.23334 483.15011 327.99999 484.01259 C 332.76665 484.87507 338.46601 486.04483 340.66601 486.61415 C 342.86601 487.18348 358.16603 487.49818 374.66601 487.31142 C 398.12119 487.04593 406.19312 486.48946 411.66601 484.7665 C 415.51599 483.55443 418.66601 482.04524 418.66601 481.41298 C 418.66601 480.78072 416.0177 476.73857 412.77929 472.43056 C 407.75963 465.75294 403.28762 461.22519 389.22069 448.56728 C 388.05919 447.52211 385.80917 446.66689 384.22069 446.66689 C 382.63223 446.66689 381.33398 446.11343 381.33398 445.43837 C 381.33398 444.7633 379.54119 443.81816 377.3496 443.33681 C 375.15801 442.85545 373.02186 441.90825 372.60351 441.23134 C 372.18515 440.55442 369.89297 440.00087 367.50976 440.00087 C 365.12654 440.00087 362.01138 439.11857 360.58788 438.04189 C 359.02128 436.85697 356.99263 436.22949 353.7578 436.13954 z M 632.09374 438.07509 C 611.56169 437.98429 602.83644 439.96235 594.66601 446.56142 C 591.36601 449.22673 586.95392 452.2758 584.86132 453.33681 C 581.04251 455.27304 559.99999 476.60821 559.99999 478.54384 C 559.99999 479.11189 563.15001 481.3005 566.99999 483.40907 C 574.65176 487.59984 586.74764 490.76658 591.99999 489.954 C 593.83333 489.67036 604.334 489.07179 615.33398 488.62392 C 638.49552 487.68088 651.63296 484.80868 662.43749 478.32509 C 671.14829 473.09788 688.57413 457.3178 687.07421 456.01454 C 686.4837 455.50146 679.99932 452.49357 672.66601 449.33095 C 665.33268 446.16833 656.97518 442.35818 654.09374 440.86415 C 649.66589 438.5683 646.25974 438.13775 632.09374 438.07509 z M 624.40234 441.17665 C 631.60247 441.27134 638.88254 444.82091 642.75194 450.9872 C 644.9248 454.44986 645.38293 457.02441 645.00976 463.65712 C 644.6005 470.93143 643.99384 472.54647 640.1914 476.46962 C 636.17768 480.61072 628.26587 484.1902 623.84569 483.86415 C 622.83079 483.78925 620.09602 483.11632 617.76952 482.36806 C 615.44304 481.61981 611.57174 478.97515 609.16601 476.49306 C 605.33817 472.54373 604.73403 470.94146 604.32421 463.65712 C 603.78062 453.99526 606.43843 448.39262 613.65429 443.99306 C 616.88056 442.02597 620.63083 441.12705 624.40234 441.17665 z M 353.16796 442.01454 C 360.36087 442.24217 367.5045 445.99634 371.46093 453.60048 C 374.21292 458.88971 373.82192 469.18134 370.67382 474.34462 C 365.0541 483.56171 351.00024 487.07785 341.99999 481.51845 C 333.16019 476.05814 329.36918 467.10637 331.90624 457.68446 C 334.58908 447.72116 343.04381 442.3079 351.73046 442.0165 C 352.2095 442.00042 352.68843 441.99937 353.16796 442.01454 z "
       transform="translate(-21.052726,-37.586808)" />
    <path
       id="path33"
       style="fill:#803300"
       d="M 551.63671 46.741105 C 539.87716 46.447117 528.37555 47.550286 517.33398 50.102433 C 509.43994 51.927059 479.31286 63.217221 477.05273 65.198136 C 476.53147 65.654999 478.98637 70.351488 482.50976 75.633683 C 486.03314 80.915878 492.16046 92.154897 496.12499 100.61025 C 500.08953 109.06559 503.68063 115.98658 504.10546 115.9911 C 504.53029 115.9961 509.63095 113.28871 515.43944 109.97548 C 536.56076 97.927665 553.40701 93.338511 579.99999 92.389542 C 602.28447 91.594321 617.07867 93.609164 636.61523 100.10048 C 655.26829 106.29823 689.42465 123.69973 706.63671 135.77235 C 715.05329 141.6758 722.14623 146.29799 722.40038 146.04384 C 722.65453 145.7897 721.96551 143.84565 720.86913 141.72548 C 716.4823 133.24228 683.11976 103.10245 658.8789 85.723527 C 624.50561 61.080398 586.91537 47.623067 551.63671 46.741105 z M 413.09569 53.526261 C 407.68067 53.642531 402.32352 54.544964 393.33398 56.672745 C 348.52184 67.279564 315.08609 86.652891 263.99999 131.6122 C 246.45635 147.05182 235.99999 157.65903 235.99999 160.0165 C 235.99999 162.12969 239.6153 159.81061 247.99999 152.31532 C 264.28172 137.76068 300.01297 115.79797 324.28319 105.4286 C 365.82389 87.680466 404.75769 88.172036 432.5996 106.79384 C 461.78438 126.31382 478.40496 161.75925 482.08593 212.3329 C 482.60633 219.48289 483.41269 225.3329 483.87694 225.3329 C 484.34121 225.3329 488.18742 219.10114 492.42577 211.48329 C 502.46709 193.43544 503.17532 190.58021 502.22069 172.00087 C 499.64329 121.83853 483.59583 82.298342 459.14062 65.856339 C 449.53259 59.396567 433.50094 54.565574 418.66601 53.65712 C 416.71176 53.537448 414.9007 53.487505 413.09569 53.526261 z M 381.3789 101.06728 C 372.73351 101.08278 363.75937 101.82101 356.88671 103.27626 C 326.17791 109.77871 292.38493 127.28963 258.66601 154.1747 C 224.70079 181.25616 175.7077 239.11094 160.01562 270.66689 C 157.64526 275.43354 154.16267 281.38817 152.27538 283.89931 C 150.3881 286.41044 148.69442 289.86728 148.51171 291.58095 C 148.329 293.29463 146.38141 297.83871 144.18359 301.68056 C 138.50535 311.60625 136.95413 316.00087 139.13085 316.00087 C 140.08355 316.00087 145.21952 307.96145 150.54296 298.13759 C 161.50359 277.91091 171.40229 262.5972 183.96093 246.43642 C 196.00596 230.93655 247.5367 179.73562 261.99999 168.89735 C 278.02824 156.88637 301.93995 145.20754 322.72655 139.23525 C 338.82703 134.60934 339.84202 134.484 355.99999 135.16689 C 375.76875 136.0024 388.13253 138.9876 403.65038 146.67275 C 422.82933 156.17104 439.4645 171.30377 453.23827 191.78017 C 459.25233 200.72078 473.24276 228.62169 473.40624 232.00087 C 473.46234 233.16125 474.00584 232.74933 474.70116 231.0204 C 476.46042 226.64593 473.8316 200.28093 470.07812 184.65321 C 458.73796 137.43821 438.06868 111.99451 403.90429 103.19228 C 398.34251 101.75932 390.02429 101.05177 381.3789 101.06728 z M 578.65819 101.50478 C 555.10069 101.28678 549.25127 103.13457 529.99999 112.81532 C 511.34659 122.19544 506.2125 126.27062 506.36327 131.57314 C 506.59889 139.86032 510.86339 175.25523 511.83593 176.99306 C 512.59508 178.34958 516.55727 175.90914 527.42773 167.38759 C 544.46449 154.03213 560.11623 145.53054 576.74804 140.60048 C 592.79217 135.84462 620.35854 134.62001 637.69921 137.8915 C 676.13703 145.14316 706.68463 163.86283 746.90429 204.81337 C 782.83245 241.39443 807.62034 275.72834 829.58007 319.3329 C 836.22772 332.53289 842.31878 344.14832 843.11718 345.1454 C 845.82206 348.52341 845.63176 344.20594 842.66796 334.99306 C 836.6868 316.40081 823.45092 284.94933 815.76366 271.05946 C 785.10557 215.66429 747.15123 172.57809 702.65819 142.66103 C 686.8728 132.04696 670.22464 122.97697 650.55859 114.27431 C 625.34788 103.11802 622.22587 102.47045 589.92968 101.7079 C 585.75085 101.60923 582.02355 101.53592 578.65819 101.50478 z M 356.56054 143.10048 C 327.00209 142.9917 292.85213 155.77675 261.99999 178.87978 C 243.55317 192.69332 213.89348 222.27557 196.70702 244.00087 C 189.45547 253.16753 180.64157 264.24916 177.12109 268.62782 C 170.08048 277.38469 150.3819 314.04693 140.91991 336.00087 C 123.07945 377.39474 112.63097 422.35267 107.45702 480.00087 C 103.43548 524.80896 103.23647 546.62962 106.88085 542.98525 C 107.58355 542.28255 109.92537 531.72698 112.08398 519.52821 C 118.98229 480.54428 133.38392 428.52683 148.27343 388.81728 C 184.31144 292.70572 242.11249 214.03351 302.67187 178.66493 C 322.78227 166.91982 339.66628 161.61214 372.48632 156.71767 C 391.34766 153.90487 397.83782 152.05939 395.85546 150.07704 C 394.59786 148.81944 379.61617 145.40825 368.92382 143.94423 C 364.91157 143.39486 360.78317 143.11602 356.56054 143.10048 z M 612.61132 144.74501 C 593.3517 144.67521 590.83186 144.93162 587.27929 147.3329 L 583.33398 150.00087 L 587.99999 150.35048 C 605.08777 151.63109 622.20158 156.6582 643.50585 166.65712 C 660.20835 174.49625 673.27428 182.84458 687.99999 195.08485 C 703.84557 208.25597 735.78595 240.42381 742.52734 250.00087 C 745.62453 254.40087 752.29182 263.35283 757.34569 269.8954 C 778.42578 297.18498 807.20006 351.13265 826.02929 398.66689 C 839.37403 432.35559 853.96918 476.45154 856.74804 491.47939 C 859.35872 505.59767 859.64542 506.66689 860.82616 506.66689 C 861.3268 506.66689 861.38265 496.31688 860.94921 483.66689 C 859.29524 435.39515 850.70394 394.70409 832.44726 348.66689 C 822.73781 324.18295 806.69484 290.87887 800.63085 282.61806 C 797.97734 279.00326 792.95811 271.68572 789.47655 266.35634 C 776.49345 246.4825 724.38244 192.67201 701.57616 175.58876 C 684.81412 163.03299 662.38072 151.80504 645.99999 147.77431 C 636.24292 145.37342 630.00178 144.80803 612.61132 144.74501 z M 579.83788 158.74696 C 571.45291 158.64988 563.44739 159.29398 557.94726 160.704 C 537.0064 166.07239 509.85391 193.87399 494.6914 225.47353 C 489.66951 235.93942 481.45309 267.2313 483.2539 269.03212 C 484.27009 270.04831 488.88952 266.51595 501.99999 254.70204 C 517.23395 240.97465 530.38629 231.87562 544.65234 225.19032 C 562.33377 216.90452 573.86245 214.30636 593.33398 214.22157 C 611.77792 214.14127 621.52701 215.98585 638.42187 222.75087 C 691.3098 243.92823 747.75543 311.43072 779.94921 392.00087 C 799.1578 440.07348 809.86983 489.50143 820.03124 576.94032 C 826.75537 634.80137 833.91235 672.38977 848.14257 724.58876 C 857.79099 759.9809 864.52405 779.92017 866.24609 778.19814 C 866.62956 777.81466 866.25918 742.21219 865.42187 699.0829 C 862.79544 563.80305 860.8766 543.66206 844.56054 480.00087 C 835.12497 443.18563 830.60149 428.58622 823.16405 410.95204 C 819.85022 403.0949 815.40355 391.95532 813.28124 386.19814 C 806.05183 366.58692 773.66869 307.36797 756.3203 282.03212 C 712.13025 217.49632 655.62034 172.68201 603.99999 161.2372 C 596.98686 159.68231 588.22286 158.84405 579.83788 158.74696 z M 385.74413 164.33485 C 346.78256 164.18285 310.41694 179.01875 273.64062 209.88368 C 199.51302 272.09606 140.37418 398.40713 114.08593 550.66689 C 107.7313 587.47253 104.18316 642.40688 103.1914 719.3329 C 102.40771 780.12059 102.4195 780.16528 111.77343 750.97157 C 131.6804 688.84167 139.25244 652.10775 150.03905 565.3329 C 161.92829 469.68771 167.92749 441.01332 184.90234 398.69423 C 216.48038 319.96872 277.66421 244.1034 328.53319 220.60048 C 344.17368 213.37413 357.37743 210.27703 372.66601 210.24696 C 388.1321 210.21656 398.85596 212.62366 412.99218 219.2997 C 426.51408 225.68562 432.22746 229.89648 450.23437 246.7411 C 458.90515 254.85222 467.13667 262.12036 468.52538 262.89345 C 470.90111 264.216 470.9969 263.89786 470.15038 257.5165 C 466.52718 230.20342 448.01728 191.5222 431.11718 175.94423 C 423.22851 168.67271 419.14505 167.14858 402.60937 165.31337 C 396.92868 164.6829 391.31007 164.35657 385.74413 164.33485 z M 374.95507 217.53603 C 344.80802 217.43382 312.33289 234.29904 279.33202 267.32118 C 239.36877 307.31019 203.16319 365.925 186.25976 418.00087 C 173.90234 456.07145 168.46115 484.46422 159.30077 558.66689 C 147.99094 650.28079 137.16831 699.46547 106.63476 798.00087 C 84.886088 868.18643 78.316624 883.9152 49.23046 935.45595 C 41.118094 949.83107 34.804445 962.43501 35.19921 963.46376 C 36.15612 965.95743 46.107529 965.90602 59.525382 963.33876 C 71.990249 960.95384 81.504529 956.53202 89.703117 949.31532 C 102.72548 937.85259 109.54912 920.91678 136.15624 834.00087 C 180.42516 689.39028 194.4679 629.54135 203.29101 547.90321 C 212.15377 465.89819 213.94323 458.813 237.8828 410.81532 C 244.69003 397.16716 251.89449 381.67143 253.89452 376.37978 C 260.12663 359.89089 276.14893 336.45129 300.37109 308.38564 C 314.19652 292.36642 321.31389 285.92435 328.80663 282.65126 C 331.81742 281.33604 334.60971 279.40666 335.00976 278.36415 C 336.0764 275.58453 351.96724 267.63888 367.99999 261.86806 C 381.78399 256.90664 382.30856 256.82725 401.99999 256.75087 C 424.32938 256.66427 433.5708 258.42009 447.18749 265.34071 C 458.90856 271.2979 460.75464 270.77506 455.93163 262.86415 C 445.61711 245.94578 409.03441 222.21372 387.72851 218.62001 C 383.52209 217.91051 379.26179 217.55063 374.95507 217.53603 z M 593.99999 222.26064 C 575.51046 222.18514 566.48244 224.1662 549.78905 231.96376 C 525.95977 243.09455 489.86463 270.30887 493.76171 274.20595 C 494.19609 274.64033 499.52775 273.73844 505.60937 272.20204 C 524.65989 267.38928 535.491 266.30639 557.33398 267.03017 C 587.85506 268.04151 611.26023 274.80511 636.66601 289.954 C 673.8853 312.14702 699.85393 344.16118 722.64062 395.94228 C 725.43015 402.2813 730.79217 412.83549 734.55468 419.39735 C 751.21059 448.4455 757.76022 475.39481 764.68163 543.3329 C 771.39539 609.23281 780.42744 658.82962 800.02538 737.41884 C 821.08211 821.85789 863.06527 959.11169 869.96093 966.05946 C 873.07173 969.19377 885.67864 971.79485 905.25976 973.34071 C 918.86396 974.41472 934.5925 973.7218 936.48437 971.96571 C 938.19148 970.38112 932.52977 958.95263 917.92773 934.50282 C 897.52112 900.33379 879.74943 861.11527 871.33984 831.69423 C 869.39665 824.89599 863.09097 804.03289 857.32812 785.3329 C 828.37816 691.39277 822.35363 663.95247 811.36523 576.00087 C 796.12605 454.02591 784.23034 410.04821 748.4746 343.50087 C 732.22517 313.25798 719.45829 296.72947 691.40234 269.61025 C 667.62846 246.63011 646.22435 233.18437 621.71874 225.83876 C 611.97549 222.9182 607.3039 222.315 593.99999 222.26064 z M 738.05077 448.65126 C 737.83386 448.72408 737.63067 448.95545 737.42773 449.3329 C 736.83629 450.4329 735.95063 470.83358 735.45898 494.66689 C 734.48356 541.95142 733.52159 554.52791 728.57616 584.66689 C 723.76178 614.00727 721.33182 642.60532 721.33788 669.88173 C 721.34688 712.22664 725.50421 729.5136 755.66405 812.66689 C 772.64412 859.48241 775.68622 868.87256 783.31444 898.00087 C 791.45952 929.10279 796.70826 956.08109 800.65819 987.1415 C 802.49579 1001.5914 803.99999 1013.9534 803.99999 1014.6122 C 803.99999 1015.2711 805.0104 1016.8199 806.24413 1018.0536 C 809.29877 1021.1083 818.19979 1019.8136 826.97069 1015.0399 C 837.25431 1009.4428 850.8876 996.05795 855.91796 986.62001 C 861.57779 976.00107 861.24704 973.36087 849.74804 937.38173 C 820.74232 846.62592 807.83927 802.3989 791.77734 738.66689 C 773.06656 664.42455 760.99785 598.18482 756.67382 546.00087 C 753.13433 503.28495 747.05537 467.65452 740.74804 452.66689 C 739.47728 449.64728 738.70151 448.43281 738.05077 448.65126 z M 228.1953 448.73329 C 228.09186 448.7491 227.98698 448.81466 227.87694 448.9247 C 223.87834 452.9233 216.4872 497.6925 212.0371 544.88173 C 204.27707 627.16983 181.41385 720.97433 132.47655 871.29384 C 118.40551 914.51554 115.81301 924.92434 115.03124 941.3329 C 114.42765 954.00174 114.70285 956.34397 117.93749 965.96181 C 125.20895 987.58276 139.8637 1011.0924 150.56444 1018.3036 C 156.49477 1022.3001 159.35699 1022.1278 161.15234 1017.6669 C 163.61181 1011.5559 166.29301 997.88795 169.98046 972.66689 C 179.54644 907.23839 191.61835 860.74744 211.69726 812.00087 C 226.49039 776.08687 238.09032 739.8634 241.98046 717.44228 C 248.16315 681.80771 247.05676 626.21351 239.26562 581.0204 C 235.96816 561.89321 233.55965 533.45298 232.06444 496.00087 C 230.60128 459.35146 229.74698 448.49623 228.1953 448.73329 z M 249.69726 593.60634 C 249.2584 593.61164 249.373 594.69938 249.80859 597.3329 C 251.9148 610.06686 253.53362 653.97695 252.78319 677.99501 C 251.80234 709.38857 249.4767 726.66115 243.37694 747.83876 C 239.13732 762.55825 236.32215 770.34031 215.35351 825.3329 C 200.26164 864.91303 190.73082 899.2733 183.23827 941.11025 C 178.41822 968.02455 171.84381 1016.0011 172.76952 1017.4989 C 173.97369 1019.4473 180.74012 1017.6755 191.37304 1012.6298 C 203.24057 1006.9983 216.55338 996.74774 222.99999 988.27821 C 232.50528 975.79023 240.39578 955.29723 254.10155 907.50673 C 272.45989 843.49324 279.34314 794.65225 280.90038 717.3329 C 281.83365 670.99478 281.62238 669.25974 272.61913 649.22743 C 269.25952 641.75224 263.52288 626.8678 259.87109 616.15126 C 256.21929 605.43472 252.28649 595.76689 251.1328 594.66689 C 250.42255 593.9897 249.96057 593.60316 249.69726 593.60634 z M 709.54101 633.91493 C 708.37319 634.16783 707.27452 635.70469 707.14648 637.91884 C 707.04407 639.68979 703.8392 648.23283 700.02343 656.90321 C 685.82261 689.17102 684.60081 696.6194 686.68163 738.31337 C 689.58599 796.50906 700.34163 860.9611 716.5703 917.41689 C 730.60521 966.24107 740.16987 985.93288 754.66601 995.85048 C 761.22175 1000.3356 777.39103 1005.1445 786.30859 1005.2606 C 791.36868 1005.3266 792.04258 1004.9583 792.86327 1001.6884 C 794.59495 994.78877 785.28145 937.90297 776.73437 903.17665 C 770.84767 879.25941 760.90539 848.70132 748.41015 816.12782 C 720.84086 744.25819 713.25857 711.21344 712.72265 660.58485 C 712.58244 647.3396 712.04414 635.81486 711.52538 634.97548 C 710.96784 634.07336 710.2417 633.76319 709.54101 633.91493 z M 291.95702 691.30556 C 291.44239 690.98751 290.61955 700.7637 290.1289 713.03017 C 286.00364 816.16219 278.79374 857.42512 247.55859 956.66689 C 243.24159 970.38305 242.0198 975.98663 242.95507 977.79384 C 244.48417 980.74851 256.23487 986.33288 264.23437 987.90712 C 267.40508 988.53109 274.22232 989.10607 279.3828 989.18642 L 288.76562 989.3329 L 300.29296 966.3329 C 317.04292 932.91471 326.56468 908.99385 333.59179 882.66689 C 337.48612 868.07682 337.71509 865.77361 338.33593 835.17275 C 339.58891 773.4142 334.45222 753.86957 305.6914 710.97353 C 298.65191 700.47431 292.47164 691.62361 291.95702 691.30556 z M 674.35351 704.15907 C 673.52682 704.38865 672.67654 705.56496 671.8828 707.66689 C 671.12126 709.68355 666.41783 717.63291 661.43163 725.3329 C 646.4921 748.40345 641.54028 764.69219 638.56444 800.53798 C 634.98078 843.7055 641.15112 886.5255 656.67773 926.24501 C 664.92819 947.35098 682.19298 980.67148 688.12694 986.93837 C 692.78858 991.86157 693.17794 992.00087 702.26171 992.00087 C 707.39916 992.00087 713.642 991.31625 716.13476 990.48134 C 718.62752 989.64642 722.06857 987.69773 723.78124 986.14931 C 727.92305 982.40475 727.563 980.4334 715.30273 939.69032 C 690.63673 857.72084 681.62681 807.64013 678.77734 736.66689 C 678.15905 721.2669 677.21661 707.61623 676.68359 706.3329 C 675.98293 704.64599 675.18019 703.92949 674.35351 704.15907 z "
       transform="translate(-21.052726,-37.586808)" />
  </g>
</svg>
